<!DOCTYPE svg PUBLIC "-//W3C//DTD SVG 1.1//EN" "http://www.w3.org/Graphics/SVG/1.1/DTD/svg11.dtd">
<!-- Uploaded to: SVG Repo, www.svgrepo.com, Transformed by: SVG Repo Mixer Tools -->
<svg fill="#915798" version="1.1" id="Layer_1" xmlns="http://www.w3.org/2000/svg" xmlns:xlink="http://www.w3.org/1999/xlink" viewBox="0 0 198.334 198.334" xml:space="preserve" width="64px" height="64px" stroke="#915798">
<g id="SVGRepo_bgCarrier" stroke-width="0"/>
<g id="SVGRepo_tracerCarrier" stroke-linecap="round" stroke-linejoin="round" stroke="#ff29ed" stroke-width="4.760016"> <g> <g> <g> <path d="M178.462,0H19.873C8.914,0,0.001,8.913,0.001,19.872v71.361V107.1v15.867v15.867v39.628 c0,10.959,8.913,19.872,19.872,19.872h158.589c10.958,0,19.872-8.913,19.872-19.872v-39.628v-15.867V107.1V91.233V19.872 C198.334,8.913,189.42,0,178.462,0z M7.933,19.872c0-6.581,5.358-11.939,11.939-11.939h158.589 c6.581,0,11.938,5.357,11.938,11.939v67.394h-47.6c-0.334,0-0.631,0.112-0.941,0.19c-8.639-12.097-22.76-20.023-38.726-20.023 S73.048,75.36,64.409,87.456c-0.309-0.077-0.607-0.19-0.941-0.19H7.933V19.872z M142.8,115.033 c0,21.871-17.796,39.667-39.667,39.667c-21.871,0-39.666-17.796-39.666-39.667c0-21.871,17.796-39.667,39.667-39.667 C125.006,75.366,142.8,93.162,142.8,115.033z M7.933,95.2h51.984c-1.168,2.534-2.107,5.184-2.818,7.933H7.933V95.2z M7.933,111.067h47.801c-0.109,1.311-0.201,2.628-0.201,3.967s0.092,2.655,0.201,3.967H7.933V111.067z M7.933,126.933H57.1 c0.711,2.749,1.651,5.4,2.818,7.933H7.933V126.933z M190.401,178.461c0,6.582-5.357,11.939-11.939,11.939H19.873 c-6.581,0-11.939-5.357-11.939-11.939V142.8h55.533c0.334,0,0.631-0.112,0.941-0.19c8.639,12.097,22.76,20.023,38.726,20.023 s30.086-7.927,38.726-20.023c0.31,0.078,0.607,0.19,0.941,0.19h47.6V178.461z M190.401,134.867H146.35 c1.168-2.534,2.107-5.184,2.818-7.933h41.233V134.867z M190.401,119h-39.868c0.109-1.311,0.201-2.628,0.201-3.967 c0-1.339-0.092-2.655-0.201-3.967h39.868V119z M190.401,103.133h-41.233c-0.711-2.749-1.651-5.4-2.818-7.933h44.051V103.133z"/> <path d="M103.133,79.333c-19.686,0-35.7,16.014-35.7,35.7c0,19.686,16.014,35.7,35.7,35.7c19.686,0,35.7-16.014,35.7-35.7 C138.834,95.347,122.82,79.333,103.133,79.333z M103.133,142.8c-15.309,0-27.767-12.458-27.767-27.767 c0-15.309,12.458-27.766,27.767-27.766s27.767,12.458,27.767,27.767C130.901,130.343,118.443,142.8,103.133,142.8z"/> <path d="M138.834,55.533h39.667c2.192,0,3.967-1.774,3.967-3.967V19.833c0-2.192-1.774-3.967-3.967-3.967h-39.667 c-2.192,0-3.967,1.774-3.967,3.967v31.733C134.868,53.759,136.641,55.533,138.834,55.533z M142.8,23.8h31.733v23.8H142.8V23.8z"/> <path d="M87.268,39.667c0-6.562-5.326-11.9-11.877-11.9H27.743c-6.55,0-11.877,5.338-11.877,11.9s5.327,11.9,11.877,11.9h47.647 C81.941,51.567,87.268,46.229,87.268,39.667z M23.8,39.667c0-2.189,1.77-3.967,3.943-3.967h47.647 c2.212,0,3.944,1.743,3.944,3.967c0,2.189-1.77,3.967-3.943,3.967H27.743C25.532,43.634,23.8,41.891,23.8,39.667z"/> <rect x="158.667" y="162.633" width="7.933" height="19.833"/> <rect x="170.568" y="162.633" width="7.933" height="19.833"/> </g> </g> </g> </g>
<g id="SVGRepo_iconCarrier"> <g> <g> <g> <path d="M178.462,0H19.873C8.914,0,0.001,8.913,0.001,19.872v71.361V107.1v15.867v15.867v39.628 c0,10.959,8.913,19.872,19.872,19.872h158.589c10.958,0,19.872-8.913,19.872-19.872v-39.628v-15.867V107.1V91.233V19.872 C198.334,8.913,189.42,0,178.462,0z M7.933,19.872c0-6.581,5.358-11.939,11.939-11.939h158.589 c6.581,0,11.938,5.357,11.938,11.939v67.394h-47.6c-0.334,0-0.631,0.112-0.941,0.19c-8.639-12.097-22.76-20.023-38.726-20.023 S73.048,75.36,64.409,87.456c-0.309-0.077-0.607-0.19-0.941-0.19H7.933V19.872z M142.8,115.033 c0,21.871-17.796,39.667-39.667,39.667c-21.871,0-39.666-17.796-39.666-39.667c0-21.871,17.796-39.667,39.667-39.667 C125.006,75.366,142.8,93.162,142.8,115.033z M7.933,95.2h51.984c-1.168,2.534-2.107,5.184-2.818,7.933H7.933V95.2z M7.933,111.067h47.801c-0.109,1.311-0.201,2.628-0.201,3.967s0.092,2.655,0.201,3.967H7.933V111.067z M7.933,126.933H57.1 c0.711,2.749,1.651,5.4,2.818,7.933H7.933V126.933z M190.401,178.461c0,6.582-5.357,11.939-11.939,11.939H19.873 c-6.581,0-11.939-5.357-11.939-11.939V142.8h55.533c0.334,0,0.631-0.112,0.941-0.19c8.639,12.097,22.76,20.023,38.726,20.023 s30.086-7.927,38.726-20.023c0.31,0.078,0.607,0.19,0.941,0.19h47.6V178.461z M190.401,134.867H146.35 c1.168-2.534,2.107-5.184,2.818-7.933h41.233V134.867z M190.401,119h-39.868c0.109-1.311,0.201-2.628,0.201-3.967 c0-1.339-0.092-2.655-0.201-3.967h39.868V119z M190.401,103.133h-41.233c-0.711-2.749-1.651-5.4-2.818-7.933h44.051V103.133z"/> <path d="M103.133,79.333c-19.686,0-35.7,16.014-35.7,35.7c0,19.686,16.014,35.7,35.7,35.7c19.686,0,35.7-16.014,35.7-35.7 C138.834,95.347,122.82,79.333,103.133,79.333z M103.133,142.8c-15.309,0-27.767-12.458-27.767-27.767 c0-15.309,12.458-27.766,27.767-27.766s27.767,12.458,27.767,27.767C130.901,130.343,118.443,142.8,103.133,142.8z"/> <path d="M138.834,55.533h39.667c2.192,0,3.967-1.774,3.967-3.967V19.833c0-2.192-1.774-3.967-3.967-3.967h-39.667 c-2.192,0-3.967,1.774-3.967,3.967v31.733C134.868,53.759,136.641,55.533,138.834,55.533z M142.8,23.8h31.733v23.8H142.8V23.8z"/> <path d="M87.268,39.667c0-6.562-5.326-11.9-11.877-11.9H27.743c-6.55,0-11.877,5.338-11.877,11.9s5.327,11.9,11.877,11.9h47.647 C81.941,51.567,87.268,46.229,87.268,39.667z M23.8,39.667c0-2.189,1.77-3.967,3.943-3.967h47.647 c2.212,0,3.944,1.743,3.944,3.967c0,2.189-1.77,3.967-3.943,3.967H27.743C25.532,43.634,23.8,41.891,23.8,39.667z"/> <rect x="158.667" y="162.633" width="7.933" height="19.833"/> <rect x="170.568" y="162.633" width="7.933" height="19.833"/> </g> </g> </g> </g>
</svg>